<mxfile host="Electron" modified="2023-04-18T15:34:37.837Z" agent="Mozilla/5.0 (X11; Linux x86_64) AppleWebKit/537.36 (KHTML, like Gecko) draw.io/21.1.2 Chrome/106.0.5249.199 Electron/21.4.3 Safari/537.36" etag="5FRi_Nso-1IgmGqJpC9S" version="21.1.2" type="device">
  <diagram name="Page-1" id="JcT0RMSEW7f_WX4fLzr4">
    <mxGraphModel dx="2049" dy="1223" grid="1" gridSize="10" guides="1" tooltips="1" connect="1" arrows="1" fold="1" page="1" pageScale="1" pageWidth="4681" pageHeight="3300" math="0" shadow="0">
      <root>
        <mxCell id="0" />
        <mxCell id="1" parent="0" />
        <mxCell id="BdIyOeIC5SQ6etiKWU73-30" style="rounded=0;orthogonalLoop=1;jettySize=auto;html=1;exitX=0;exitY=1;exitDx=0;exitDy=0;entryX=0.5;entryY=0;entryDx=0;entryDy=0;" parent="1" source="BdIyOeIC5SQ6etiKWU73-33" target="BdIyOeIC5SQ6etiKWU73-39" edge="1">
          <mxGeometry relative="1" as="geometry" />
        </mxCell>
        <mxCell id="BdIyOeIC5SQ6etiKWU73-31" style="rounded=0;orthogonalLoop=1;jettySize=auto;html=1;exitX=1;exitY=1;exitDx=0;exitDy=0;entryX=0.5;entryY=0;entryDx=0;entryDy=0;" parent="1" source="BdIyOeIC5SQ6etiKWU73-33" target="BdIyOeIC5SQ6etiKWU73-37" edge="1">
          <mxGeometry relative="1" as="geometry" />
        </mxCell>
        <mxCell id="BdIyOeIC5SQ6etiKWU73-32" style="rounded=0;orthogonalLoop=1;jettySize=auto;html=1;exitX=0.5;exitY=1;exitDx=0;exitDy=0;entryX=0.5;entryY=0;entryDx=0;entryDy=0;" parent="1" source="BdIyOeIC5SQ6etiKWU73-33" target="BdIyOeIC5SQ6etiKWU73-41" edge="1">
          <mxGeometry relative="1" as="geometry" />
        </mxCell>
        <mxCell id="BdIyOeIC5SQ6etiKWU73-33" value="Root" style="ellipse;whiteSpace=wrap;html=1;aspect=fixed;fontSize=18;" parent="1" vertex="1">
          <mxGeometry x="2010" y="40" width="60" height="60" as="geometry" />
        </mxCell>
        <mxCell id="BdIyOeIC5SQ6etiKWU73-34" style="rounded=0;orthogonalLoop=1;jettySize=auto;html=1;exitX=0.5;exitY=1;exitDx=0;exitDy=0;entryX=0.5;entryY=0;entryDx=0;entryDy=0;" parent="1" source="BdIyOeIC5SQ6etiKWU73-37" target="BdIyOeIC5SQ6etiKWU73-45" edge="1">
          <mxGeometry relative="1" as="geometry" />
        </mxCell>
        <mxCell id="BdIyOeIC5SQ6etiKWU73-35" style="rounded=0;orthogonalLoop=1;jettySize=auto;html=1;exitX=0.5;exitY=1;exitDx=0;exitDy=0;entryX=0.5;entryY=0;entryDx=0;entryDy=0;" parent="1" source="BdIyOeIC5SQ6etiKWU73-37" target="BdIyOeIC5SQ6etiKWU73-47" edge="1">
          <mxGeometry relative="1" as="geometry" />
        </mxCell>
        <mxCell id="BdIyOeIC5SQ6etiKWU73-36" style="rounded=0;orthogonalLoop=1;jettySize=auto;html=1;exitX=0.5;exitY=1;exitDx=0;exitDy=0;entryX=0.5;entryY=0;entryDx=0;entryDy=0;" parent="1" source="BdIyOeIC5SQ6etiKWU73-37" target="BdIyOeIC5SQ6etiKWU73-49" edge="1">
          <mxGeometry relative="1" as="geometry" />
        </mxCell>
        <mxCell id="BdIyOeIC5SQ6etiKWU73-37" value="Root" style="ellipse;whiteSpace=wrap;html=1;aspect=fixed;fontSize=18;" parent="1" vertex="1">
          <mxGeometry x="2080" y="130" width="60" height="60" as="geometry" />
        </mxCell>
        <mxCell id="BdIyOeIC5SQ6etiKWU73-38" style="edgeStyle=orthogonalEdgeStyle;rounded=0;orthogonalLoop=1;jettySize=auto;html=1;exitX=0.5;exitY=1;exitDx=0;exitDy=0;entryX=0.5;entryY=0;entryDx=0;entryDy=0;" parent="1" source="BdIyOeIC5SQ6etiKWU73-39" target="BdIyOeIC5SQ6etiKWU73-52" edge="1">
          <mxGeometry relative="1" as="geometry" />
        </mxCell>
        <mxCell id="BdIyOeIC5SQ6etiKWU73-39" value="Root" style="ellipse;whiteSpace=wrap;html=1;aspect=fixed;fontSize=18;" parent="1" vertex="1">
          <mxGeometry x="1870" y="130" width="60" height="60" as="geometry" />
        </mxCell>
        <mxCell id="BdIyOeIC5SQ6etiKWU73-40" style="rounded=0;orthogonalLoop=1;jettySize=auto;html=1;exitX=0.5;exitY=1;exitDx=0;exitDy=0;entryX=0.5;entryY=0;entryDx=0;entryDy=0;" parent="1" source="BdIyOeIC5SQ6etiKWU73-41" target="BdIyOeIC5SQ6etiKWU73-42" edge="1">
          <mxGeometry relative="1" as="geometry" />
        </mxCell>
        <mxCell id="BdIyOeIC5SQ6etiKWU73-41" value="Operator" style="ellipse;whiteSpace=wrap;html=1;aspect=fixed;fontSize=14;" parent="1" vertex="1">
          <mxGeometry x="1940" y="130" width="60" height="60" as="geometry" />
        </mxCell>
        <mxCell id="BdIyOeIC5SQ6etiKWU73-42" value="&lt;font style=&quot;font-size: 18px;&quot;&gt;&quot;+&quot;&lt;/font&gt;" style="whiteSpace=wrap;html=1;aspect=fixed;" parent="1" vertex="1">
          <mxGeometry x="1945" y="225" width="50" height="50" as="geometry" />
        </mxCell>
        <mxCell id="BdIyOeIC5SQ6etiKWU73-45" value="Root" style="ellipse;whiteSpace=wrap;html=1;aspect=fixed;fontSize=18;fillColor=#DBDBDB;" parent="1" vertex="1">
          <mxGeometry x="2010" y="220" width="60" height="60" as="geometry" />
        </mxCell>
        <mxCell id="BdIyOeIC5SQ6etiKWU73-47" value="Operator" style="ellipse;whiteSpace=wrap;html=1;aspect=fixed;fontSize=14;fillColor=#DBDBDB;" parent="1" vertex="1">
          <mxGeometry x="2080" y="220" width="60" height="60" as="geometry" />
        </mxCell>
        <mxCell id="BdIyOeIC5SQ6etiKWU73-49" value="Root" style="ellipse;whiteSpace=wrap;html=1;aspect=fixed;fontSize=18;fillColor=#DBDBDB;" parent="1" vertex="1">
          <mxGeometry x="2150" y="220" width="60" height="60" as="geometry" />
        </mxCell>
        <mxCell id="BdIyOeIC5SQ6etiKWU73-52" value="&lt;font style=&quot;font-size: 14px;&quot;&gt;Number&lt;/font&gt;" style="ellipse;whiteSpace=wrap;html=1;aspect=fixed;fontSize=18;fillColor=#DBDBDB;" parent="1" vertex="1">
          <mxGeometry x="1870" y="220" width="60" height="60" as="geometry" />
        </mxCell>
        <mxCell id="BdIyOeIC5SQ6etiKWU73-82" value="" style="shape=flexArrow;endArrow=classic;html=1;rounded=0;fillColor=#000000;" parent="1" edge="1">
          <mxGeometry width="50" height="50" relative="1" as="geometry">
            <mxPoint x="1800" y="69.41" as="sourcePoint" />
            <mxPoint x="1870" y="69.41" as="targetPoint" />
          </mxGeometry>
        </mxCell>
        <mxCell id="8Ne3zq_kJZK47_xj9nHz-1" style="rounded=0;orthogonalLoop=1;jettySize=auto;html=1;exitX=0;exitY=1;exitDx=0;exitDy=0;entryX=0.5;entryY=0;entryDx=0;entryDy=0;" edge="1" parent="1" source="8Ne3zq_kJZK47_xj9nHz-4" target="8Ne3zq_kJZK47_xj9nHz-10">
          <mxGeometry relative="1" as="geometry" />
        </mxCell>
        <mxCell id="8Ne3zq_kJZK47_xj9nHz-2" style="rounded=0;orthogonalLoop=1;jettySize=auto;html=1;exitX=1;exitY=1;exitDx=0;exitDy=0;entryX=0.5;entryY=0;entryDx=0;entryDy=0;" edge="1" parent="1" source="8Ne3zq_kJZK47_xj9nHz-4" target="8Ne3zq_kJZK47_xj9nHz-8">
          <mxGeometry relative="1" as="geometry" />
        </mxCell>
        <mxCell id="8Ne3zq_kJZK47_xj9nHz-3" style="rounded=0;orthogonalLoop=1;jettySize=auto;html=1;exitX=0.5;exitY=1;exitDx=0;exitDy=0;entryX=0.5;entryY=0;entryDx=0;entryDy=0;" edge="1" parent="1" source="8Ne3zq_kJZK47_xj9nHz-4" target="8Ne3zq_kJZK47_xj9nHz-12">
          <mxGeometry relative="1" as="geometry" />
        </mxCell>
        <mxCell id="8Ne3zq_kJZK47_xj9nHz-4" value="Root" style="ellipse;whiteSpace=wrap;html=1;aspect=fixed;fontSize=18;" vertex="1" parent="1">
          <mxGeometry x="1670" y="40" width="60" height="60" as="geometry" />
        </mxCell>
        <mxCell id="8Ne3zq_kJZK47_xj9nHz-8" value="Root" style="ellipse;whiteSpace=wrap;html=1;aspect=fixed;fontSize=18;fillColor=#DBDBDB;" vertex="1" parent="1">
          <mxGeometry x="1740" y="130" width="60" height="60" as="geometry" />
        </mxCell>
        <mxCell id="8Ne3zq_kJZK47_xj9nHz-10" value="Root" style="ellipse;whiteSpace=wrap;html=1;aspect=fixed;fontSize=18;fillColor=#DBDBDB;" vertex="1" parent="1">
          <mxGeometry x="1600" y="130" width="60" height="60" as="geometry" />
        </mxCell>
        <mxCell id="8Ne3zq_kJZK47_xj9nHz-12" value="Operator" style="ellipse;whiteSpace=wrap;html=1;aspect=fixed;fontSize=14;fillColor=#DBDBDB;" vertex="1" parent="1">
          <mxGeometry x="1670" y="130" width="60" height="60" as="geometry" />
        </mxCell>
        <mxCell id="8Ne3zq_kJZK47_xj9nHz-21" value="Root" style="ellipse;whiteSpace=wrap;html=1;aspect=fixed;fontSize=18;fillColor=#DBDBDB;" vertex="1" parent="1">
          <mxGeometry x="1450" y="40" width="60" height="60" as="geometry" />
        </mxCell>
        <mxCell id="8Ne3zq_kJZK47_xj9nHz-25" value="" style="shape=flexArrow;endArrow=classic;html=1;rounded=0;fillColor=#000000;" edge="1" parent="1">
          <mxGeometry width="50" height="50" relative="1" as="geometry">
            <mxPoint x="1530" y="69.41000000000003" as="sourcePoint" />
            <mxPoint x="1600" y="69.41000000000003" as="targetPoint" />
          </mxGeometry>
        </mxCell>
        <mxCell id="8Ne3zq_kJZK47_xj9nHz-26" value="" style="shape=flexArrow;endArrow=classic;html=1;rounded=0;fillColor=#000000;" edge="1" parent="1">
          <mxGeometry width="50" height="50" relative="1" as="geometry">
            <mxPoint x="2210" y="69.41" as="sourcePoint" />
            <mxPoint x="2280" y="69.41" as="targetPoint" />
          </mxGeometry>
        </mxCell>
        <mxCell id="8Ne3zq_kJZK47_xj9nHz-52" style="rounded=0;orthogonalLoop=1;jettySize=auto;html=1;exitX=0;exitY=1;exitDx=0;exitDy=0;entryX=0.5;entryY=0;entryDx=0;entryDy=0;" edge="1" parent="1" source="8Ne3zq_kJZK47_xj9nHz-55" target="8Ne3zq_kJZK47_xj9nHz-61">
          <mxGeometry relative="1" as="geometry" />
        </mxCell>
        <mxCell id="8Ne3zq_kJZK47_xj9nHz-53" style="rounded=0;orthogonalLoop=1;jettySize=auto;html=1;exitX=1;exitY=1;exitDx=0;exitDy=0;entryX=0.5;entryY=0;entryDx=0;entryDy=0;" edge="1" parent="1" source="8Ne3zq_kJZK47_xj9nHz-55" target="8Ne3zq_kJZK47_xj9nHz-59">
          <mxGeometry relative="1" as="geometry" />
        </mxCell>
        <mxCell id="8Ne3zq_kJZK47_xj9nHz-54" style="rounded=0;orthogonalLoop=1;jettySize=auto;html=1;exitX=0.5;exitY=1;exitDx=0;exitDy=0;entryX=0.5;entryY=0;entryDx=0;entryDy=0;" edge="1" parent="1" source="8Ne3zq_kJZK47_xj9nHz-55" target="8Ne3zq_kJZK47_xj9nHz-63">
          <mxGeometry relative="1" as="geometry" />
        </mxCell>
        <mxCell id="8Ne3zq_kJZK47_xj9nHz-55" value="Root" style="ellipse;whiteSpace=wrap;html=1;aspect=fixed;fontSize=18;" vertex="1" parent="1">
          <mxGeometry x="2550" y="40" width="60" height="60" as="geometry" />
        </mxCell>
        <mxCell id="8Ne3zq_kJZK47_xj9nHz-56" style="rounded=0;orthogonalLoop=1;jettySize=auto;html=1;exitX=0.5;exitY=1;exitDx=0;exitDy=0;entryX=0.5;entryY=0;entryDx=0;entryDy=0;" edge="1" parent="1" source="8Ne3zq_kJZK47_xj9nHz-59" target="8Ne3zq_kJZK47_xj9nHz-66">
          <mxGeometry relative="1" as="geometry" />
        </mxCell>
        <mxCell id="8Ne3zq_kJZK47_xj9nHz-57" style="rounded=0;orthogonalLoop=1;jettySize=auto;html=1;exitX=0.5;exitY=1;exitDx=0;exitDy=0;entryX=0.5;entryY=0;entryDx=0;entryDy=0;" edge="1" parent="1" source="8Ne3zq_kJZK47_xj9nHz-59" target="8Ne3zq_kJZK47_xj9nHz-68">
          <mxGeometry relative="1" as="geometry" />
        </mxCell>
        <mxCell id="8Ne3zq_kJZK47_xj9nHz-58" style="rounded=0;orthogonalLoop=1;jettySize=auto;html=1;exitX=0.5;exitY=1;exitDx=0;exitDy=0;entryX=0.5;entryY=0;entryDx=0;entryDy=0;" edge="1" parent="1" source="8Ne3zq_kJZK47_xj9nHz-59" target="8Ne3zq_kJZK47_xj9nHz-70">
          <mxGeometry relative="1" as="geometry" />
        </mxCell>
        <mxCell id="8Ne3zq_kJZK47_xj9nHz-59" value="Root" style="ellipse;whiteSpace=wrap;html=1;aspect=fixed;fontSize=18;" vertex="1" parent="1">
          <mxGeometry x="2620" y="130" width="60" height="60" as="geometry" />
        </mxCell>
        <mxCell id="8Ne3zq_kJZK47_xj9nHz-60" style="edgeStyle=orthogonalEdgeStyle;rounded=0;orthogonalLoop=1;jettySize=auto;html=1;exitX=0.5;exitY=1;exitDx=0;exitDy=0;entryX=0.5;entryY=0;entryDx=0;entryDy=0;" edge="1" parent="1" source="8Ne3zq_kJZK47_xj9nHz-61" target="8Ne3zq_kJZK47_xj9nHz-72">
          <mxGeometry relative="1" as="geometry" />
        </mxCell>
        <mxCell id="8Ne3zq_kJZK47_xj9nHz-61" value="Root" style="ellipse;whiteSpace=wrap;html=1;aspect=fixed;fontSize=18;" vertex="1" parent="1">
          <mxGeometry x="2410" y="130" width="60" height="60" as="geometry" />
        </mxCell>
        <mxCell id="8Ne3zq_kJZK47_xj9nHz-62" style="rounded=0;orthogonalLoop=1;jettySize=auto;html=1;exitX=0.5;exitY=1;exitDx=0;exitDy=0;entryX=0.5;entryY=0;entryDx=0;entryDy=0;" edge="1" parent="1" source="8Ne3zq_kJZK47_xj9nHz-63" target="8Ne3zq_kJZK47_xj9nHz-64">
          <mxGeometry relative="1" as="geometry" />
        </mxCell>
        <mxCell id="8Ne3zq_kJZK47_xj9nHz-63" value="Operator" style="ellipse;whiteSpace=wrap;html=1;aspect=fixed;fontSize=14;" vertex="1" parent="1">
          <mxGeometry x="2480" y="130" width="60" height="60" as="geometry" />
        </mxCell>
        <mxCell id="8Ne3zq_kJZK47_xj9nHz-64" value="&lt;font style=&quot;font-size: 18px;&quot;&gt;&quot;+&quot;&lt;/font&gt;" style="whiteSpace=wrap;html=1;aspect=fixed;" vertex="1" parent="1">
          <mxGeometry x="2485" y="225" width="50" height="50" as="geometry" />
        </mxCell>
        <mxCell id="8Ne3zq_kJZK47_xj9nHz-65" style="edgeStyle=orthogonalEdgeStyle;rounded=0;orthogonalLoop=1;jettySize=auto;html=1;exitX=0.5;exitY=1;exitDx=0;exitDy=0;entryX=0.5;entryY=0;entryDx=0;entryDy=0;" edge="1" parent="1" source="8Ne3zq_kJZK47_xj9nHz-66" target="8Ne3zq_kJZK47_xj9nHz-75">
          <mxGeometry relative="1" as="geometry" />
        </mxCell>
        <mxCell id="8Ne3zq_kJZK47_xj9nHz-66" value="Root" style="ellipse;whiteSpace=wrap;html=1;aspect=fixed;fontSize=18;fillColor=#FFFFFF;" vertex="1" parent="1">
          <mxGeometry x="2550" y="220" width="60" height="60" as="geometry" />
        </mxCell>
        <mxCell id="8Ne3zq_kJZK47_xj9nHz-67" style="edgeStyle=orthogonalEdgeStyle;rounded=0;orthogonalLoop=1;jettySize=auto;html=1;exitX=0.5;exitY=1;exitDx=0;exitDy=0;entryX=0.5;entryY=0;entryDx=0;entryDy=0;" edge="1" parent="1" source="8Ne3zq_kJZK47_xj9nHz-68" target="8Ne3zq_kJZK47_xj9nHz-74">
          <mxGeometry relative="1" as="geometry" />
        </mxCell>
        <mxCell id="8Ne3zq_kJZK47_xj9nHz-68" value="Operator" style="ellipse;whiteSpace=wrap;html=1;aspect=fixed;fontSize=14;fillColor=#FFFFFF;" vertex="1" parent="1">
          <mxGeometry x="2620" y="220" width="60" height="60" as="geometry" />
        </mxCell>
        <mxCell id="8Ne3zq_kJZK47_xj9nHz-69" style="edgeStyle=orthogonalEdgeStyle;rounded=0;orthogonalLoop=1;jettySize=auto;html=1;exitX=0.5;exitY=1;exitDx=0;exitDy=0;entryX=0.5;entryY=0;entryDx=0;entryDy=0;" edge="1" parent="1" source="8Ne3zq_kJZK47_xj9nHz-70" target="8Ne3zq_kJZK47_xj9nHz-76">
          <mxGeometry relative="1" as="geometry" />
        </mxCell>
        <mxCell id="8Ne3zq_kJZK47_xj9nHz-70" value="Root" style="ellipse;whiteSpace=wrap;html=1;aspect=fixed;fontSize=18;fillColor=#FFFFFF;" vertex="1" parent="1">
          <mxGeometry x="2690" y="220" width="60" height="60" as="geometry" />
        </mxCell>
        <mxCell id="8Ne3zq_kJZK47_xj9nHz-71" style="edgeStyle=orthogonalEdgeStyle;rounded=0;orthogonalLoop=1;jettySize=auto;html=1;exitX=0.5;exitY=1;exitDx=0;exitDy=0;entryX=0.5;entryY=0;entryDx=0;entryDy=0;" edge="1" parent="1" source="8Ne3zq_kJZK47_xj9nHz-72" target="8Ne3zq_kJZK47_xj9nHz-73">
          <mxGeometry relative="1" as="geometry" />
        </mxCell>
        <mxCell id="8Ne3zq_kJZK47_xj9nHz-72" value="&lt;font style=&quot;font-size: 14px;&quot;&gt;Number&lt;/font&gt;" style="ellipse;whiteSpace=wrap;html=1;aspect=fixed;fontSize=18;fillColor=#FFFFFF;" vertex="1" parent="1">
          <mxGeometry x="2410" y="220" width="60" height="60" as="geometry" />
        </mxCell>
        <mxCell id="8Ne3zq_kJZK47_xj9nHz-73" value="&lt;font style=&quot;font-size: 18px;&quot;&gt;&quot;7&quot;&lt;/font&gt;" style="whiteSpace=wrap;html=1;aspect=fixed;" vertex="1" parent="1">
          <mxGeometry x="2415" y="305" width="50" height="50" as="geometry" />
        </mxCell>
        <mxCell id="8Ne3zq_kJZK47_xj9nHz-74" value="&lt;font style=&quot;font-size: 18px;&quot;&gt;&quot;*&quot;&lt;/font&gt;" style="whiteSpace=wrap;html=1;aspect=fixed;" vertex="1" parent="1">
          <mxGeometry x="2625" y="305" width="50" height="50" as="geometry" />
        </mxCell>
        <mxCell id="8Ne3zq_kJZK47_xj9nHz-80" style="edgeStyle=orthogonalEdgeStyle;rounded=0;orthogonalLoop=1;jettySize=auto;html=1;exitX=0.5;exitY=1;exitDx=0;exitDy=0;entryX=0.5;entryY=0;entryDx=0;entryDy=0;" edge="1" parent="1" source="8Ne3zq_kJZK47_xj9nHz-75" target="8Ne3zq_kJZK47_xj9nHz-77">
          <mxGeometry relative="1" as="geometry" />
        </mxCell>
        <mxCell id="8Ne3zq_kJZK47_xj9nHz-75" value="&lt;font style=&quot;font-size: 14px;&quot;&gt;Number&lt;/font&gt;" style="ellipse;whiteSpace=wrap;html=1;aspect=fixed;fontSize=18;fillColor=#FFFFFF;" vertex="1" parent="1">
          <mxGeometry x="2550" y="300" width="60" height="60" as="geometry" />
        </mxCell>
        <mxCell id="8Ne3zq_kJZK47_xj9nHz-79" style="edgeStyle=orthogonalEdgeStyle;rounded=0;orthogonalLoop=1;jettySize=auto;html=1;exitX=0.5;exitY=1;exitDx=0;exitDy=0;entryX=0.5;entryY=0;entryDx=0;entryDy=0;" edge="1" parent="1" source="8Ne3zq_kJZK47_xj9nHz-76" target="8Ne3zq_kJZK47_xj9nHz-78">
          <mxGeometry relative="1" as="geometry" />
        </mxCell>
        <mxCell id="8Ne3zq_kJZK47_xj9nHz-76" value="&lt;font style=&quot;font-size: 14px;&quot;&gt;Number&lt;/font&gt;" style="ellipse;whiteSpace=wrap;html=1;aspect=fixed;fontSize=18;fillColor=#FFFFFF;" vertex="1" parent="1">
          <mxGeometry x="2690" y="300" width="60" height="60" as="geometry" />
        </mxCell>
        <mxCell id="8Ne3zq_kJZK47_xj9nHz-77" value="&lt;font style=&quot;font-size: 18px;&quot;&gt;&quot;2&quot;&lt;/font&gt;" style="whiteSpace=wrap;html=1;aspect=fixed;" vertex="1" parent="1">
          <mxGeometry x="2555" y="380" width="50" height="50" as="geometry" />
        </mxCell>
        <mxCell id="8Ne3zq_kJZK47_xj9nHz-78" value="&lt;font style=&quot;font-size: 18px;&quot;&gt;&quot;15&quot;&lt;/font&gt;" style="whiteSpace=wrap;html=1;aspect=fixed;" vertex="1" parent="1">
          <mxGeometry x="2695" y="380" width="50" height="50" as="geometry" />
        </mxCell>
        <mxCell id="8Ne3zq_kJZK47_xj9nHz-81" value="" style="shape=flexArrow;endArrow=classic;html=1;rounded=0;fillColor=#000000;" edge="1" parent="1">
          <mxGeometry width="50" height="50" relative="1" as="geometry">
            <mxPoint x="2341" y="69.28999999999999" as="sourcePoint" />
            <mxPoint x="2411" y="69.28999999999999" as="targetPoint" />
          </mxGeometry>
        </mxCell>
        <mxCell id="8Ne3zq_kJZK47_xj9nHz-82" value="&lt;font style=&quot;font-size: 35px;&quot;&gt;...&lt;/font&gt;" style="text;html=1;strokeColor=none;fillColor=none;align=center;verticalAlign=middle;whiteSpace=wrap;rounded=0;fontSize=35;" vertex="1" parent="1">
          <mxGeometry x="2281" y="55" width="60" height="30" as="geometry" />
        </mxCell>
      </root>
    </mxGraphModel>
  </diagram>
</mxfile>
